{
  "source": "C:\\Users\\Peter\\Desktop\\stuff\\MIUN\\quantitative_research\\video_compression\\videos\\BVI-HD\\BVI-HD_CDVL_videos\\ORIG\\BricksLeaves_1920x1080_60fps.mp4",
  "output": "C:\\Users\\Peter\\Desktop\\stuff\\MIUN\\quantitative_research\\video_compression\\compressed_videos\\BVI-HD\\h264\\1\\BricksLeaves_1920x1080_60fps_h264.mp4",
  "codec": "h264",
  "ok": "Input #0, mov,mp4,m4a,3gp,3g2,mj2, from 'C:\\Users\\Peter\\Desktop\\stuff\\MIUN\\quantitative_research\\video_compression\\videos\\BVI-HD\\BVI-HD_CDVL_videos\\ORIG\\BricksLeaves_1920x1080_60fps.mp4':\n  Metadata:\n    major_brand     : isom\n    minor_version   : 512\n    compatible_brands: isomiso2avc1mp41\n    encoder         : Lavf54.28.101\n  Duration: 00:00:05.00, start: 0.000000, bitrate: 524627 kb/s\n  Stream #0:0[0x1](und): Video: h264 (High 4:4:4 Predictive) (avc1 / 0x31637661), yuv420p(progressive), 1920x1080, 524622 kb/s, 60 fps, 60 tbr, 60 tbn (default)\n    Metadata:\n      handler_name    : VideoHandler\n      vendor_id       : [0][0][0][0]\n[out#0/mp4 @ 00000171300b9b40] Codec AVOption b:a (set bitrate (in bits/s)) has not been used for any stream. The most likely reason is either wrong type (e.g. a video option with no video streams) or that it is a private option of some decoder which was not actually used for any stream.\nStream mapping:\n  Stream #0:0 -> #0:0 (h264 (native) -> h264 (libx264))\nPress [q] to stop, [?] for help\n[libx264 @ 0000017130c70300] using cpu capabilities: MMX2 SSE2Fast SSSE3 SSE4.2 AVX FMA3 BMI2 AVX2\n[libx264 @ 0000017130c70300] profile High, level 5.0, 4:2:0, 8-bit\n[libx264 @ 0000017130c70300] 264 - core 165 r3222 b35605a - H.264/MPEG-4 AVC codec - Copyleft 2003-2025 - http://www.videolan.org/x264.html - options: cabac=1 ref=5 deblock=1:0:0 analyse=0x3:0x113 me=hex subme=8 psy=1 psy_rd=1.00:0.00 mixed_ref=1 me_range=16 chroma_me=1 trellis=2 8x8dct=1 cqm=0 deadzone=21,11 fast_pskip=1 chroma_qp_offset=-2 threads=18 lookahead_threads=3 sliced_threads=0 nr=0 decimate=1 interlaced=0 bluray_compat=0 constrained_intra=0 bframes=3 b_pyramid=2 b_adapt=1 b_bias=0 direct=3 weightb=1 open_gop=0 weightp=2 keyint=250 keyint_min=25 scenecut=40 intra_refresh=0 rc_lookahead=50 rc=cbr mbtree=1 bitrate=1000 ratetol=1.0 qcomp=0.60 qpmin=0 qpmax=69 qpstep=4 vbv_maxrate=1000 vbv_bufsize=1000 nal_hrd=none filler=0 ip_ratio=1.40 aq=1:1.00\nOutput #0, mp4, to 'C:\\Users\\Peter\\Desktop\\stuff\\MIUN\\quantitative_research\\video_compression\\compressed_videos\\BVI-HD\\h264\\1\\BricksLeaves_1920x1080_60fps_h264.mp4':\n  Metadata:\n    major_brand     : isom\n    minor_version   : 512\n    compatible_brands: isomiso2avc1mp41\n    encoder         : Lavf62.3.100\n  Stream #0:0(und): Video: h264 (avc1 / 0x31637661), yuv420p(tv, progressive), 1920x1080, q=2-31, 1000 kb/s, 60 fps, 15360 tbn (default)\n    Metadata:\n      encoder         : Lavc62.11.100 libx264\n      handler_name    : VideoHandler\n      vendor_id       : [0][0][0][0]\n    Side data:\n      cpb: bitrate max/min/avg: 1000000/0/1000000 buffer size: 1000000 vbv_delay: N/A\nframe=    0 fps=0.0 q=0.0 size=       0KiB time=N/A bitrate=N/A speed=N/A elapsed=0:00:00.50    \nframe=    0 fps=0.0 q=0.0 size=       0KiB time=N/A bitrate=N/A speed=N/A elapsed=0:00:01.07    \nframe=    4 fps=2.4 q=56.0 size=       0KiB time=N/A bitrate=N/A speed=N/A elapsed=0:00:01.64    \nframe=   40 fps= 18 q=49.0 size=       0KiB time=00:00:00.63 bitrate=   0.6kbits/s speed=0.28x elapsed=0:00:02.26    \nframe=   76 fps= 27 q=49.0 size=       0KiB time=00:00:01.16 bitrate=   0.3kbits/s speed=0.412x elapsed=0:00:02.83    \nframe=  108 fps= 32 q=49.0 size=       0KiB time=00:00:01.76 bitrate=   0.2kbits/s speed=0.518x elapsed=0:00:03.41    \nframe=  143 fps= 36 q=49.0 size=       0KiB time=00:00:02.35 bitrate=   0.2kbits/s speed=0.585x elapsed=0:00:04.01    \nframe=  180 fps= 39 q=49.0 size=     256KiB time=00:00:02.90 bitrate= 723.3kbits/s speed=0.63x elapsed=0:00:04.59    \nframe=  212 fps= 41 q=51.0 size=     256KiB time=00:00:03.48 bitrate= 602.2kbits/s speed=0.673x elapsed=0:00:05.17    \nframe=  233 fps= 41 q=53.0 size=     256KiB time=00:00:03.85 bitrate= 544.8kbits/s speed=0.672x elapsed=0:00:05.72    \nframe=  278 fps= 44 q=53.0 size=     256KiB time=00:00:04.55 bitrate= 461.0kbits/s speed=0.726x elapsed=0:00:06.26    \n[mp4 @ 0000017130147ac0] Starting second pass: moving the moov atom to the beginning of the file\n[out#0/mp4 @ 00000171300b9b40] video:548KiB audio:0KiB subtitle:0KiB other streams:0KiB global headers:0KiB muxing overhead: 0.794024%\nframe=  300 fps= 46 q=-1.0 Lsize=     552KiB time=00:00:04.96 bitrate= 910.9kbits/s speed=0.76x elapsed=0:00:06.53    \n[libx264 @ 0000017130c70300] frame I:2     Avg QP:48.20  size: 34955\n[libx264 @ 0000017130c70300] frame P:76    Avg QP:49.11  size:  3483\n[libx264 @ 0000017130c70300] frame B:222   Avg QP:50.97  size:  1017\n[libx264 @ 0000017130c70300] consecutive B-frames:  1.3%  0.0%  0.0% 98.7%\n[libx264 @ 0000017130c70300] mb I  I16..4: 30.8% 64.7%  4.5%\n[libx264 @ 0000017130c70300] mb P  I16..4:  3.2%  0.7%  0.0%  P16..4: 11.3%  0.5%  5.6%  0.0%  0.0%    skip:78.8%\n[libx264 @ 0000017130c70300] mb B  I16..4:  0.2%  0.1%  0.0%  B16..8:  7.5%  0.2%  0.0%  direct: 0.1%  skip:92.1%  L0:51.0% L1:48.4% BI: 0.6%\n[libx264 @ 0000017130c70300] 8x8 transform intra:35.8% inter:94.0%\n[libx264 @ 0000017130c70300] direct mvs  spatial:95.5% temporal:4.5%\n[libx264 @ 0000017130c70300] coded y,uvDC,uvAC intra: 18.1% 36.6% 0.6% inter: 0.6% 1.7% 0.0%\n[libx264 @ 0000017130c70300] i16 v,h,dc,p: 31% 31% 10% 28%\n[libx264 @ 0000017130c70300] i8 v,h,dc,ddl,ddr,vr,hd,vl,hu:  4%  6% 12% 12% 14% 10% 16% 10% 15%\n[libx264 @ 0000017130c70300] i4 v,h,dc,ddl,ddr,vr,hd,vl,hu:  4%  5%  2% 15% 14% 11% 17% 10% 23%\n[libx264 @ 0000017130c70300] i8c dc,h,v,p: 92%  5%  3%  0%\n[libx264 @ 0000017130c70300] Weighted P-Frames: Y:0.0% UV:0.0%\n[libx264 @ 0000017130c70300] ref P L0: 59.0%  0.4% 20.5% 10.2%  9.9%\n[libx264 @ 0000017130c70300] ref B L0: 66.7% 18.2% 11.6%  3.5%\n[libx264 @ 0000017130c70300] ref B L1: 87.3% 12.7%\n[libx264 @ 0000017130c70300] kb/s:896.49\n",
  "seconds": 6.978267431259155,
  "probe_out": {}
}